<svg width="137" height="30" viewBox="0 0 137 30" fill="none" xmlns="http://www.w3.org/2000/svg">
<g clip-path="url(#clip0_1809_2280)">
<path d="M44.5947 21.6738H46.6629L49.5442 11.8009L52.4255 21.6738H54.476L58.1527 8.96963H56.0139L53.4331 18.7519L50.6932 8.96963H48.3776L45.6553 18.7519L43.0568 8.96963H40.918L44.5947 21.6738ZM61.8197 21.8553C63.1808 21.8553 64.1354 21.3653 64.648 20.5849C64.701 21.0749 64.8071 21.4379 64.9661 21.6738H66.7515C66.5571 21.1838 66.4686 20.5849 66.4686 19.859V15.0132C66.4686 12.9987 65.1429 11.9097 62.7919 11.9097C61.0773 11.9097 59.6985 12.6357 58.9738 13.6702L60.1581 14.8135C60.7768 13.9968 61.6076 13.5794 62.6859 13.5794C63.9763 13.5794 64.6303 14.015 64.6303 14.7954C64.6303 15.6121 63.9763 16.0113 62.1909 16.0113C61.1657 16.0113 60.2995 16.2473 59.6101 16.7192C58.9207 17.2092 58.5672 17.9351 58.5672 18.9152C58.5672 20.7845 59.8929 21.8553 61.8197 21.8553ZM62.1202 20.2764C61.0773 20.2764 60.4586 19.75 60.4586 18.8789C60.4586 17.9896 61.1303 17.4814 62.2793 17.4814C63.7111 17.4814 64.2944 17.3544 64.6303 16.937V17.9533C64.6303 19.3326 63.6934 20.2764 62.1202 20.2764ZM72.3078 21.8553C74.7296 21.8553 76.1793 20.5304 76.1793 18.8789C76.1793 17.2636 75.1895 16.4651 73.1208 16.084C71.3534 15.7754 70.5759 15.4124 70.5759 14.6683C70.5759 13.9968 71.2827 13.5613 72.3609 13.5613C73.2976 13.5613 74.0582 13.8879 74.6058 14.5594L75.8609 13.4524C75.0833 12.4904 73.8636 11.9097 72.3255 11.9097C70.3106 11.9097 68.7548 13.0531 68.7548 14.6865C68.7548 16.211 69.7976 17.1547 71.901 17.5177C73.616 17.8081 74.2874 18.1348 74.2874 18.8789C74.2874 19.623 73.5629 20.1675 72.3432 20.1675C71.2296 20.1675 70.4167 19.7137 69.9391 18.7881L68.2956 19.623C68.5779 20.2945 69.1085 20.8208 69.8684 21.2383C70.6289 21.6557 71.4418 21.8553 72.3078 21.8553ZM80.9636 21.8553C82.3248 21.8553 83.2793 21.3653 83.7922 20.5849C83.8452 21.0749 83.9514 21.4379 84.1105 21.6738H85.8956C85.701 21.1838 85.6126 20.5849 85.6126 19.859V15.0132C85.6126 12.9987 84.2867 11.9097 81.9357 11.9097C80.2214 11.9097 78.8425 12.6357 78.118 13.6702L79.3024 14.8135C79.9208 13.9968 80.7514 13.5794 81.8296 13.5794C83.1201 13.5794 83.7745 14.015 83.7745 14.7954C83.7745 15.6121 83.1201 16.0113 81.335 16.0113C80.3099 16.0113 79.4439 16.2473 78.7541 16.7192C78.065 17.2092 77.7112 17.9351 77.7112 18.9152C77.7112 20.7845 79.0371 21.8553 80.9636 21.8553ZM81.2643 20.2764C80.2214 20.2764 79.6024 19.75 79.6024 18.8789C79.6024 17.9896 80.2745 17.4814 81.4235 17.4814C82.8554 17.4814 83.4384 17.3544 83.7745 16.937V17.9533C83.7745 19.3326 82.8378 20.2764 81.2643 20.2764ZM93.065 11.9097C91.7391 11.9097 90.6255 12.4904 90.0072 13.2709V8.78814H88.0983V21.6738H89.8126L90.1663 20.7482C90.8201 21.456 91.7922 21.8553 92.9235 21.8553C95.6636 21.8553 97.4493 19.7863 97.4493 16.8644C97.4493 13.9424 95.6813 11.9097 93.065 11.9097ZM92.7473 20.1675C90.9969 20.1675 89.8657 18.6792 89.8657 16.8644C89.8657 15.0495 90.9969 13.5976 92.7473 13.5976C93.6133 13.5976 94.3024 13.9061 94.7976 14.5232C95.2922 15.1583 95.5398 15.9387 95.5398 16.8644C95.5398 17.8081 95.2922 18.5885 94.7976 19.2237C94.3024 19.8589 93.6133 20.1675 92.7473 20.1675ZM99.6126 21.6738H101.521V12.0912H99.6126V21.6738ZM99.5418 10.7119H101.61V8.57031H99.5418V10.7119Z" fill="white"/>
<path d="M136.171 20.0873V21.6331H128.141V20.3135L132.325 14.9788C132.526 14.7275 132.727 14.4699 132.928 14.206C133.142 13.9421 133.356 13.6845 133.569 13.4331C133.23 13.4457 132.891 13.452 132.552 13.452C132.212 13.452 131.873 13.452 131.533 13.452H128.291V11.9062H135.945V13.2258L131.76 18.5604C131.558 18.8118 131.352 19.0694 131.137 19.3333C130.937 19.5972 130.729 19.8548 130.515 20.1062C130.855 20.0936 131.194 20.0873 131.533 20.0873C131.873 20.0873 132.212 20.0873 132.552 20.0873H136.171Z" fill="white"/>
<path d="M127.022 11.9062L123.063 22.8583C122.9 23.3484 122.706 23.7505 122.479 24.0648C122.265 24.3915 122.014 24.6491 121.725 24.8376C121.436 25.0386 121.103 25.1769 120.726 25.2523C120.361 25.3403 119.94 25.3843 119.463 25.3843C119.274 25.3843 119.105 25.378 118.954 25.3654C118.804 25.3654 118.646 25.3529 118.483 25.3277V23.8008H119.425C119.903 23.8008 120.267 23.7003 120.518 23.4992C120.782 23.2982 120.984 23.0091 121.122 22.6321C121.21 22.3933 121.298 22.1483 121.386 21.8969L117.785 11.9062H119.84L120.971 15.2428C121.223 16.0219 121.467 16.8011 121.706 17.5802C121.957 18.3468 122.196 19.1197 122.423 19.8988C122.661 19.1197 122.9 18.3468 123.139 17.5802C123.39 16.8011 123.642 16.0219 123.893 15.2428L125.024 11.9062H127.022Z" fill="white"/>
<path d="M117.169 21.6331H114.982L114.53 20.9921L112.419 18.0137C112.079 18.4913 111.728 18.9814 111.363 19.4841C110.998 19.9868 110.641 20.4957 110.289 21.0109L109.836 21.6331H107.688L111.344 16.6377L107.876 11.9062H110.062L110.722 12.8111C111.011 13.2132 111.3 13.6216 111.59 14.0363C111.879 14.4511 112.167 14.8658 112.456 15.2805C112.745 14.8658 113.034 14.4511 113.324 14.0363C113.613 13.6216 113.902 13.2132 114.191 12.8111L114.832 11.9062H116.981L113.512 16.6377L117.169 21.6331Z" fill="white"/>
<path d="M104.082 19.3906H106.363V21.6338H104.082V19.3906Z" fill="white"/>
<path d="M19.854 16.6837C18.3897 16.6843 16.951 16.2992 15.6828 15.5672L14.6875 14.9915L15.6828 14.4147C16.7489 13.7993 17.6343 12.9141 18.2499 11.848C18.8655 10.782 19.1895 9.57258 19.1895 8.34156C19.1895 7.11054 18.8655 5.90124 18.2499 4.83518C17.6343 3.76912 16.7489 2.8839 15.6828 2.2685L14.6875 1.6936L15.6828 1.1176C16.7909 0.477836 18.0313 0.101554 19.3081 0.0178641C20.5849 -0.0658265 21.8638 0.145317 23.0459 0.634961C24.2281 1.12461 25.2817 1.87963 26.1254 2.84161C26.9691 3.80361 27.5802 4.94677 27.9113 6.1827C28.2425 7.41864 28.2849 8.71415 28.0353 9.96912C27.7857 11.2241 27.2508 12.4048 26.4719 13.4199C25.693 14.435 24.691 15.2574 23.5434 15.8233C22.3959 16.3893 21.1335 16.6837 19.854 16.6837ZM17.3453 14.8902C18.407 15.2965 19.5515 15.4384 20.6803 15.3039C21.8091 15.1695 22.8882 14.7624 23.8248 14.1181C24.7612 13.4737 25.527 12.6113 26.0561 11.6051C26.5851 10.5989 26.8615 9.47918 26.8615 8.34238C26.8615 7.20565 26.5851 6.08591 26.0561 5.07973C25.527 4.07356 24.7612 3.21112 23.8248 2.56675C22.8882 1.92237 21.8091 1.51539 20.6803 1.38088C19.5515 1.24636 18.407 1.38835 17.3453 1.79461C18.3351 2.57496 19.1352 3.5696 19.6853 4.70372C20.2354 5.83784 20.5212 7.0819 20.5212 8.34238C20.5212 9.60292 20.2354 10.847 19.6853 11.9811C19.1352 13.1152 18.3351 14.1099 17.3453 14.8902Z" fill="white"/>
<path d="M12.1802 29.9795C10.9012 29.9788 9.63935 29.6839 8.49241 29.1176C7.34547 28.5514 6.34415 27.729 5.56581 26.714C4.78748 25.6989 4.253 24.5185 4.00371 23.2639C3.75442 22.0093 3.79698 20.7142 4.12812 19.4788C4.45926 18.2433 5.0701 17.1005 5.91341 16.1388C6.75672 15.177 7.80989 14.4221 8.99152 13.9325C10.1732 13.4427 11.4516 13.2313 12.728 13.3146C14.0044 13.3978 15.2445 13.7735 16.3525 14.4126L17.3478 14.9886L16.3525 15.5651C15.2862 16.1804 14.4007 17.0656 13.7851 18.1316C13.1694 19.1978 12.8453 20.4072 12.8453 21.6382C12.8453 22.8693 13.1694 24.0786 13.7851 25.1448C14.4007 26.2108 15.2862 27.096 16.3525 27.7113L17.3478 28.287L16.3525 28.863C15.084 29.5951 13.6449 29.9802 12.1802 29.9795ZM12.1802 14.6274C11.1518 14.6278 10.136 14.8546 9.20499 15.2914C8.2739 15.7284 7.45037 16.3648 6.7928 17.1555C6.1352 17.9463 5.65964 18.872 5.39983 19.8672C5.14002 20.8623 5.10233 21.9023 5.28943 22.9136C5.47652 23.9249 5.88384 24.8827 6.48247 25.719C7.08112 26.5552 7.85642 27.2496 8.75336 27.7527C9.65037 28.2559 10.647 28.5555 11.6728 28.6304C12.6985 28.7052 13.7282 28.5535 14.6887 28.186C13.6989 27.4056 12.8989 26.411 12.3489 25.2768C11.7989 24.1427 11.5131 22.8986 11.5131 21.6382C11.5131 20.3778 11.7989 19.1337 12.3489 17.9996C12.8989 16.8655 13.6989 15.8708 14.6887 15.0904C13.8878 14.7843 13.0376 14.6274 12.1802 14.6274Z" fill="white"/>
<path d="M15.3538 16.1464V14.9931C15.3535 13.7625 15.0295 12.5537 14.4142 11.4882C13.7989 10.4225 12.914 9.53755 11.8484 8.92218C10.7828 8.30674 9.5741 7.98259 8.34356 7.98218C7.11308 7.98184 5.90411 8.30524 4.83815 8.91994L3.83984 9.49762V8.34395C3.84064 7.06204 4.1369 5.7975 4.70562 4.64862C5.27434 3.49972 6.10021 2.49738 7.11914 1.71941C8.13798 0.941445 9.32247 0.408789 10.5806 0.162809C11.8387 -0.0831716 13.1366 -0.0358576 14.3735 0.301077C15.6104 0.638011 16.7529 1.2555 17.7125 2.10559C18.6721 2.95568 19.4227 4.0155 19.9063 5.20274C20.3899 6.38999 20.5933 7.67272 20.5007 8.9513C20.4082 10.2299 20.0222 11.47 19.3727 12.5752C18.6402 13.8159 17.6004 14.8469 16.3535 15.5688L15.3538 16.1464ZM8.34301 6.65145C10.3468 6.6517 12.2835 7.37293 13.7994 8.68327C15.3153 9.99368 16.3091 11.8057 16.5991 13.7884C17.4098 13.1316 18.0634 12.3019 18.5121 11.36C18.9608 10.4181 19.1933 9.38783 19.1925 8.34449C19.1915 6.58111 18.5262 4.88283 17.3291 3.58808C16.1319 2.29332 14.4909 1.49717 12.7329 1.35825C10.9751 1.21935 9.22934 1.74789 7.84369 2.83855C6.45809 3.92922 5.53427 5.50193 5.25636 7.24327C6.23853 6.85245 7.28594 6.65166 8.34301 6.65145Z" fill="white"/>
<path d="M5.16869 22.7923L4.17012 22.2149C2.9019 21.4828 1.84881 20.4297 1.11678 19.1614C0.384745 17.8931 -0.000427378 16.4545 3.55861e-07 14.9901C-6.93184e-05 13.3403 0.489103 11.7276 1.40565 10.3557C2.3222 8.98396 3.62497 7.91477 5.14919 7.28341C6.67341 6.65205 8.35061 6.48686 9.96871 6.80872C11.5868 7.13062 13.0731 7.92511 14.2397 9.09171C15.0167 9.86457 15.6327 10.7838 16.052 11.7963C16.4713 12.8087 16.6856 13.8943 16.6827 14.9901V16.1435L15.6844 15.5659C14.6184 14.9508 13.4094 14.6272 12.1788 14.6275C10.9482 14.6278 9.73932 14.9519 8.67367 15.5674C7.60803 16.1828 6.72312 17.0678 6.10788 18.1336C5.49263 19.1994 5.16872 20.4083 5.16869 21.6389V22.7923ZM8.34129 7.97933C7.10605 7.9796 5.89273 8.3062 4.82422 8.92607C3.75571 9.54593 2.86991 10.4371 2.25648 11.5093C1.64304 12.5815 1.32373 13.7967 1.33088 15.0321C1.33803 16.2673 1.67137 17.4788 2.29717 18.5438C2.72283 19.2654 3.27368 19.9052 3.92388 20.4334C4.10661 19.1868 4.5692 17.9978 5.27698 16.9554C5.98476 15.913 6.91932 15.0444 8.01068 14.4147C9.10197 13.785 10.3217 13.4106 11.5783 13.3195C12.835 13.2284 14.0959 13.4229 15.2667 13.8887C15.0035 12.241 14.1618 10.7412 12.8927 9.65817C11.6234 8.57518 10.0098 7.97994 8.34129 7.97933Z" fill="white"/>
<path d="M19.8552 29.9806C18.0186 29.9809 16.2333 29.3752 14.7761 28.2572C13.3188 27.1393 12.2713 25.5718 11.796 23.7977C11.3206 22.0237 11.444 20.1424 12.147 18.4457C12.85 16.7489 14.0933 15.3316 15.6841 14.4136L16.6824 13.8359V14.9896C16.6826 16.2202 17.0065 17.4291 17.6218 18.4948C18.2371 19.5605 19.122 20.4456 20.1876 21.061C21.2532 21.6765 22.462 22.0008 23.6927 22.0012C24.9232 22.0017 26.1322 21.6782 27.1983 21.0635L28.1966 20.4859V21.6392C28.1966 23.8514 27.3178 25.9731 25.7535 27.5374C24.1892 29.1017 22.0675 29.9806 19.8552 29.9806ZM15.4378 16.1948C14.3126 17.1074 13.4977 18.3461 13.1052 19.7408C12.7128 21.1354 12.7622 22.6174 13.2465 23.9828C13.7307 25.3482 14.6262 26.5301 15.8097 27.3657C16.9931 28.2014 18.4065 28.6499 19.8552 28.6495C21.5236 28.6486 23.1371 28.0531 24.4061 26.9701C25.675 25.887 26.5165 24.3871 26.7795 22.7396C25.6089 23.2053 24.348 23.3998 23.0915 23.3087C21.835 23.2176 20.6154 22.8432 19.5241 22.2136C18.433 21.5839 17.4984 20.7154 16.7907 19.6731C16.0831 18.6308 15.6205 17.4419 15.4378 16.1954V16.1948Z" fill="white"/>
<path d="M23.6946 23.3312C22.599 23.3314 21.5142 23.1158 20.502 22.6967C19.4898 22.2776 18.5701 21.6632 17.7954 20.8887C17.0206 20.114 16.4061 19.1944 15.9867 18.1823C15.5675 17.1702 15.3516 16.0855 15.3516 14.9899V13.8363L16.3512 14.4131C17.4171 15.0278 18.6259 15.3512 19.8563 15.3508C21.0867 15.3505 22.2952 15.0263 23.3607 14.411C24.4262 13.7957 25.311 12.9108 25.9263 11.8454C26.5415 10.7799 26.8655 9.57124 26.8658 8.34083V7.1875L27.8644 7.76512C29.1327 8.49716 30.1858 9.55029 30.9179 10.8185C31.6499 12.0868 32.035 13.5255 32.0345 14.9899C32.0344 17.2019 31.1558 19.3234 29.5918 20.8876C28.0278 22.4518 25.9065 23.3308 23.6946 23.3312ZM16.7678 16.0912C16.9301 17.1093 17.315 18.0791 17.8949 18.9315C18.4748 19.7839 19.2356 20.498 20.123 21.0227C21.0105 21.5475 22.0027 21.8702 23.029 21.9676C24.0554 22.0651 25.0907 21.9351 26.061 21.5868C27.0314 21.2384 27.913 20.6804 28.643 19.9523C29.3731 19.2244 29.9336 18.3443 30.2846 17.375C30.6357 16.4056 30.7686 15.3707 30.6741 14.3441C30.5795 13.3174 30.2596 12.3243 29.7373 11.4354C29.3116 10.714 28.7607 10.0741 28.1106 9.5458C27.928 10.7925 27.4654 11.9816 26.7577 13.024C26.0499 14.0665 25.1154 14.9351 24.024 15.5648C22.9327 16.1946 21.713 16.5691 20.4563 16.6602C19.1996 16.7514 17.9386 16.5568 16.7678 16.0912Z" fill="white"/>
</g>
<defs>
<clipPath id="clip0_1809_2280">
<rect width="136.19" height="30" fill="white"/>
</clipPath>
</defs>
</svg>
